<svg xmlns="http://www.w3.org/2000/svg" viewBox="0 0 1200 675" role="img" aria-labelledby="t d"><title id="t">Makeup for photos and flash</title><desc id="d">A camera with a flash bolt pointed at a smiling character, with a small photo print showing the same face looking even and glowing.</desc><rect width="1200" height="675" fill="#fff5ee"/><path transform="translate(380 340) scale(2.4)" fill="#cfe8ff" opacity="1" d="M60-80C110-70 150-20 140 40S80 140 10 130-120 90-130 20-90-90 60-80Z"/><g transform="translate(300 360) scale(1.3)"><rect x="-120" y="-70" width="240" height="160" rx="24" fill="#3b1f3a"/><rect x="-70" y="-100" width="80" height="40" rx="10" fill="#3b1f3a"/><circle cx="0" cy="10" r="58" fill="#c9c3cf"/><circle cx="0" cy="10" r="40" fill="#cfe8ff"/><circle cx="-12" cy="-2" r="10" fill="#ffffff"/><rect x="70" y="-54" width="30" height="20" rx="5" fill="#f2b33d"/></g><path transform="translate(300 150) scale(1.4)" d="M0-60L-30 10H0L-14 70 40-10H8L24-60Z" fill="#f2b33d"/><path d="M430 300L640 260M430 360L640 360M430 420L640 460" stroke="#f2b33d" stroke-width="6" stroke-dasharray="14 14"/><g transform="translate(820 350) scale(1.15 1.15)"><path d="M-100-40C-110-140 110-140 100-40L118 150H-118Z" fill="#3b1f3a"/><rect x="-26" y="70" width="52" height="60" rx="20" fill="#a86b4a"/><ellipse cx="0" cy="0" rx="82" ry="94" fill="#a86b4a"/><path d="M-90-30C-90-120 90-120 90-30 50-90-10-70-90-30Z" fill="#3b1f3a"/><circle cx="-30" cy="0" r="9" fill="#3b1f3a"/><circle cx="30" cy="0" r="9" fill="#3b1f3a"/><circle cx="-27" cy="-3" r="3" fill="#ffffff"/><circle cx="33" cy="-3" r="3" fill="#ffffff"/><circle cx="-50" cy="30" r="15" fill="#ff7a6b" opacity=".45"/><circle cx="50" cy="30" r="15" fill="#ff7a6b" opacity=".45"/><path d="M-26 32q26 34 52 0Z" fill="#e0559c"/><path d="M-70 140q70-40 140 0v60h-140Z" fill="#e0559c"/></g><g transform="rotate(8 1080 520)"><rect x="990" y="420" width="180" height="210" rx="8" fill="#ffffff"/><rect x="1005" y="435" width="150" height="150" fill="#e9e1ff"/></g><g transform="translate(1080 520) scale(0.4 0.4)"><path d="M-100-40C-110-140 110-140 100-40L118 150H-118Z" fill="#3b1f3a"/><rect x="-26" y="70" width="52" height="60" rx="20" fill="#a86b4a"/><ellipse cx="0" cy="0" rx="82" ry="94" fill="#a86b4a"/><path d="M-90-30C-90-120 90-120 90-30 50-90-10-70-90-30Z" fill="#3b1f3a"/><circle cx="-30" cy="0" r="9" fill="#3b1f3a"/><circle cx="30" cy="0" r="9" fill="#3b1f3a"/><circle cx="-27" cy="-3" r="3" fill="#ffffff"/><circle cx="33" cy="-3" r="3" fill="#ffffff"/><circle cx="-50" cy="30" r="15" fill="#ff7a6b" opacity=".45"/><circle cx="50" cy="30" r="15" fill="#ff7a6b" opacity=".45"/><path d="M-20 38q20 22 40 0" stroke="#e0559c" stroke-width="7" fill="none" stroke-linecap="round"/><path d="M-70 140q70-40 140 0v60h-140Z" fill="#e0559c"/></g><path transform="translate(1100 120) scale(1.1)" fill="#e0559c" d="M0-24C3-8 8-3 24 0 8 3 3 8 0 24-3 8-8 3-24 0-8-3-3-8 0-24Z"/><path transform="translate(560 600) scale(0.9)" fill="#f2b33d" d="M0-24C3-8 8-3 24 0 8 3 3 8 0 24-3 8-8 3-24 0-8-3-3-8 0-24Z"/></svg>
