<svg xmlns="http://www.w3.org/2000/svg" viewBox="0 0 1600 900" width="1600" height="900" role="img" aria-labelledby="t d"><title id="t">Toned 'N Tasty kitchen gym</title><desc id="d">Illustration of a cheerful cook in an apron flipping a pan of vegetables with one hand and lifting a dumbbell with the other, in a bright kitchen with a fruit bowl, a pot of steaming chili and a kettlebell on the floor.</desc><rect width="1600" height="900" fill="#ffe9d6"/><circle cx="1500" cy="722" r="10" fill="#7cb518" opacity=".8"/><path d="M217 355h20M227 345v20" stroke="#ffffff" stroke-width="5" stroke-linecap="round" opacity=".9"/><path d="M65 441h20M75 431v20" stroke="#7a2e5c" stroke-width="5" stroke-linecap="round" opacity=".9"/><circle cx="231" cy="148" r="9" fill="#ffc93c" opacity=".8"/><circle cx="940" cy="441" r="10" fill="#7cb518" opacity=".8"/><circle cx="1415" cy="363" r="10" fill="#ffc93c" opacity=".8"/><circle cx="1080" cy="844" r="6" fill="#7a2e5c" opacity=".8"/><circle cx="1193" cy="268" r="5" fill="#ff5a36" opacity=".8"/><circle cx="409" cy="279" r="7" fill="#ffc93c" opacity=".8"/><path d="M344 658h20M354 648v20" stroke="#ff5a36" stroke-width="5" stroke-linecap="round" opacity=".9"/><path d="M557 742h20M567 732v20" stroke="#7cb518" stroke-width="5" stroke-linecap="round" opacity=".9"/><circle cx="469" cy="607" r="10" fill="#7cb518" opacity=".8"/><circle cx="1284" cy="327" r="10" fill="#ffc93c" opacity=".8"/><path d="M697 634h20M707 624v20" stroke="#7a2e5c" stroke-width="5" stroke-linecap="round" opacity=".9"/><path d="M1317 300h20M1327 290v20" stroke="#ffffff" stroke-width="5" stroke-linecap="round" opacity=".9"/><path d="M330 188h20M340 178v20" stroke="#7a2e5c" stroke-width="5" stroke-linecap="round" opacity=".9"/><path d="M257 726h20M267 716v20" stroke="#7cb518" stroke-width="5" stroke-linecap="round" opacity=".9"/><circle cx="1208" cy="458" r="9" fill="#ffc93c" opacity=".8"/><circle cx="126" cy="551" r="6" fill="#7cb518" opacity=".8"/><circle cx="185" cy="137" r="10" fill="#ffc93c" opacity=".8"/><path d="M655 708h20M665 698v20" stroke="#7a2e5c" stroke-width="5" stroke-linecap="round" opacity=".9"/><path d="M1096 794h20M1106 784v20" stroke="#ff5a36" stroke-width="5" stroke-linecap="round" opacity=".9"/><path d="M346 140h20M356 130v20" stroke="#7a2e5c" stroke-width="5" stroke-linecap="round" opacity=".9"/><path d="M35 94h20M45 84v20" stroke="#ffffff" stroke-width="5" stroke-linecap="round" opacity=".9"/><path d="M201 360h20M211 350v20" stroke="#ffc93c" stroke-width="5" stroke-linecap="round" opacity=".9"/><path d="M1366 819h20M1376 809v20" stroke="#ffc93c" stroke-width="5" stroke-linecap="round" opacity=".9"/><path d="M65 219h20M75 209v20" stroke="#7cb518" stroke-width="5" stroke-linecap="round" opacity=".9"/><circle cx="1455" cy="32" r="10" fill="#7cb518" opacity=".8"/><path d="M1535 559h20M1545 549v20" stroke="#7cb518" stroke-width="5" stroke-linecap="round" opacity=".9"/><circle cx="278" cy="449" r="5" fill="#ffc93c" opacity=".8"/><circle cx="1180" cy="260" r="220" fill="#ffc93c" opacity=".6"/><rect x="0" y="690" width="1600" height="210" fill="#d9a066"/><path d="M0 690 h1600" stroke="#1d2b1f" stroke-width="6" stroke-linejoin="round" stroke-linecap="round"/><rect x="90" y="90" width="360" height="260" rx="20" fill="#cfe7f3" stroke="#1d2b1f" stroke-width="6" stroke-linejoin="round" stroke-linecap="round"/><path d="M270 90 v260 M90 220 h360" stroke="#1d2b1f" stroke-width="6" stroke-linejoin="round" stroke-linecap="round"/><rect x="1150" y="120" width="360" height="20" rx="6" fill="#7a2e5c" stroke="#1d2b1f" stroke-width="4" stroke-linejoin="round" stroke-linecap="round"/><rect x="1170" y="50" width="56" height="70" rx="10" fill="#ff5a36" stroke="#1d2b1f" stroke-width="4" stroke-linejoin="round" stroke-linecap="round"/><rect x="1250" y="50" width="56" height="70" rx="10" fill="#7cb518" stroke="#1d2b1f" stroke-width="4" stroke-linejoin="round" stroke-linecap="round"/><rect x="1330" y="50" width="56" height="70" rx="10" fill="#ffc93c" stroke="#1d2b1f" stroke-width="4" stroke-linejoin="round" stroke-linecap="round"/><rect x="1410" y="50" width="56" height="70" rx="10" fill="#ffffff" stroke="#1d2b1f" stroke-width="4" stroke-linejoin="round" stroke-linecap="round"/><path d="M250 560 q-18 -30 0 -60 q18 -30 0 -60" fill="none" stroke="#ffffff" stroke-width="8" stroke-linecap="round" opacity=".9"/><path d="M290 560 q-18 -30 0 -60 q18 -30 0 -60" fill="none" stroke="#ffffff" stroke-width="8" stroke-linecap="round" opacity=".9"/><path d="M330 560 q-18 -30 0 -60 q18 -30 0 -60" fill="none" stroke="#ffffff" stroke-width="8" stroke-linecap="round" opacity=".9"/><path d="M180 580 h240 v90 q0 20 -20 20 h-200 q-20 0 -20 -20z" fill="#7a2e5c" stroke="#1d2b1f" stroke-width="6" stroke-linejoin="round" stroke-linecap="round"/><ellipse cx="300" cy="580" rx="125" ry="18" fill="#b8321a" stroke="#1d2b1f" stroke-width="4" stroke-linejoin="round" stroke-linecap="round"/><path d="M1200 640 h220 q0 50 -110 50 q-110 0 -110 -50z" fill="#ffffff" stroke="#1d2b1f" stroke-width="6" stroke-linejoin="round" stroke-linecap="round"/><circle cx="1260" cy="620" r="30" fill="#ff5a36" stroke="#1d2b1f" stroke-width="4" stroke-linejoin="round" stroke-linecap="round"/><circle cx="1320" cy="610" r="30" fill="#ffc93c" stroke="#1d2b1f" stroke-width="4" stroke-linejoin="round" stroke-linecap="round"/><circle cx="1375" cy="624" r="28" fill="#7cb518" stroke="#1d2b1f" stroke-width="4" stroke-linejoin="round" stroke-linecap="round"/><path d="M1420 770 q40 -70 80 0" fill="none" stroke="#1d2b1f" stroke-width="16"/><circle cx="1460" cy="810" r="54" fill="#1d2b1f"/><text x="1460" y="822" font-family="sans-serif" font-size="30" font-weight="800" fill="#fff" text-anchor="middle">12</text><path d="M690 410 q110 -50 220 0 l30 330 h-280z" fill="#ff5a36" stroke="#1d2b1f" stroke-width="6" stroke-linejoin="round" stroke-linecap="round"/><path d="M720 460 h160 l20 280 h-200z" fill="#ffffff" stroke="#1d2b1f" stroke-width="6" stroke-linejoin="round" stroke-linecap="round"/><path d="M740 580 h120" stroke="#7cb518" stroke-width="10"/><rect x="700" y="740" width="80" height="170" rx="20" fill="#3d4f9c" stroke="#1d2b1f" stroke-width="6" stroke-linejoin="round" stroke-linecap="round"/><rect x="820" y="740" width="80" height="170" rx="20" fill="#3d4f9c" stroke="#1d2b1f" stroke-width="6" stroke-linejoin="round" stroke-linecap="round"/><path d="M690 440 q-120 30 -170 -40" fill="none" stroke="#f2b58a" stroke-width="40" stroke-linecap="round"/><path d="M510 390 l-150 -40" stroke="#1d2b1f" stroke-width="18" stroke-linecap="round"/><ellipse cx="290" cy="340" rx="120" ry="30" fill="#6f7a73" stroke="#1d2b1f" stroke-width="6" stroke-linejoin="round" stroke-linecap="round"/><rect x="210" y="250" width="30" height="18" rx="8" fill="#7cb518" stroke="#1d2b1f" stroke-width="4" stroke-linejoin="round" stroke-linecap="round" transform="rotate(0 225 260)"/><rect x="244" y="220" width="30" height="18" rx="8" fill="#ff5a36" stroke="#1d2b1f" stroke-width="4" stroke-linejoin="round" stroke-linecap="round" transform="rotate(25 259 260)"/><rect x="278" y="190" width="30" height="18" rx="8" fill="#ffc93c" stroke="#1d2b1f" stroke-width="4" stroke-linejoin="round" stroke-linecap="round" transform="rotate(50 293 260)"/><rect x="312" y="250" width="30" height="18" rx="8" fill="#7cb518" stroke="#1d2b1f" stroke-width="4" stroke-linejoin="round" stroke-linecap="round" transform="rotate(75 327 260)"/><rect x="346" y="220" width="30" height="18" rx="8" fill="#ff5a36" stroke="#1d2b1f" stroke-width="4" stroke-linejoin="round" stroke-linecap="round" transform="rotate(100 361 260)"/><path d="M910 440 q110 0 120 -140" fill="none" stroke="#f2b58a" stroke-width="40" stroke-linecap="round"/><g transform="translate(1032 270) rotate(-80) scale(0.8)"><rect x="-70" y="-8" width="140" height="16" rx="6" fill="#9aa39c" stroke="#1d2b1f" stroke-width="6" stroke-linejoin="round" stroke-linecap="round"/><rect x="-95" y="-32" width="30" height="64" rx="8" fill="#7cb518" stroke="#1d2b1f" stroke-width="6" stroke-linejoin="round" stroke-linecap="round"/><rect x="65" y="-32" width="30" height="64" rx="8" fill="#7cb518" stroke="#1d2b1f" stroke-width="6" stroke-linejoin="round" stroke-linecap="round"/><rect x="-112" y="-22" width="20" height="44" rx="6" fill="#7cb518" stroke="#1d2b1f" stroke-width="6" stroke-linejoin="round" stroke-linecap="round"/><rect x="92" y="-22" width="20" height="44" rx="6" fill="#7cb518" stroke="#1d2b1f" stroke-width="6" stroke-linejoin="round" stroke-linecap="round"/></g><circle cx="800" cy="330" r="80" fill="#f2b58a" stroke="#1d2b1f" stroke-width="6" stroke-linejoin="round" stroke-linecap="round"/><path d="M720 322 q16.0 -96.0 80 -80 q64.0 -16.0 80 72.0 q-32.0 -48.0 -80 -40.0 q-48.0 0 -80 48.0z" fill="#1d2b1f"/><circle cx="772.0" cy="334" r="6" fill="#1d2b1f"/><circle cx="828.0" cy="334" r="6" fill="#1d2b1f"/><path d="M776.0 358.0 q24.0 24.0 48.0 0" fill="none" stroke="#1d2b1f" stroke-width="4" stroke-linejoin="round" stroke-linecap="round"/><circle cx="752.0" cy="354.0" r="9" fill="#ff5a36" opacity=".45"/><circle cx="848.0" cy="354.0" r="9" fill="#ff5a36" opacity=".45"/><path d="M710 280 q90 -60 180 0 l-10 -40 q-80 -40 -160 0z" fill="#ffffff" stroke="#1d2b1f" stroke-width="4" stroke-linejoin="round" stroke-linecap="round"/></svg>