<svg xmlns="http://www.w3.org/2000/svg" viewBox="0 0 1200 675" width="1200" height="675" role="img" aria-labelledby="t d"><title id="t">Progressive Overload Explained</title><desc id="d">Illustration of a staircase built from weight plates, each step slightly taller, with a small figure carrying a dumbbell climbing it and a training notebook at the bottom.</desc><rect width="1200" height="675" fill="#fff6d6"/><circle cx="946" cy="593" r="9" fill="#7a2e5c" opacity=".8"/><circle cx="408" cy="209" r="9" fill="#ffffff" opacity=".8"/><circle cx="401" cy="116" r="5" fill="#7a2e5c" opacity=".8"/><path d="M1113 62h20M1123 52v20" stroke="#ffffff" stroke-width="5" stroke-linecap="round" opacity=".9"/><path d="M937 650h20M947 640v20" stroke="#7cb518" stroke-width="5" stroke-linecap="round" opacity=".9"/><circle cx="1102" cy="84" r="6" fill="#ff5a36" opacity=".8"/><circle cx="81" cy="495" r="6" fill="#ffc93c" opacity=".8"/><circle cx="1083" cy="259" r="10" fill="#ffc93c" opacity=".8"/><circle cx="194" cy="488" r="9" fill="#ffc93c" opacity=".8"/><path d="M180 280h20M190 270v20" stroke="#ffc93c" stroke-width="5" stroke-linecap="round" opacity=".9"/><circle cx="1070" cy="315" r="5" fill="#ff5a36" opacity=".8"/><circle cx="840" cy="130" r="5" fill="#ffc93c" opacity=".8"/><path d="M11 238h20M21 228v20" stroke="#7cb518" stroke-width="5" stroke-linecap="round" opacity=".9"/><path d="M117 501h20M127 491v20" stroke="#7a2e5c" stroke-width="5" stroke-linecap="round" opacity=".9"/><path d="M823 449h20M833 439v20" stroke="#ff5a36" stroke-width="5" stroke-linecap="round" opacity=".9"/><circle cx="426" cy="296" r="7" fill="#ffc93c" opacity=".8"/><circle cx="51" cy="439" r="10" fill="#ff5a36" opacity=".8"/><circle cx="226" cy="31" r="8" fill="#ff5a36" opacity=".8"/><rect x="0" y="560" width="1200" height="115" fill="#e2d4bd"/><path d="M0 560 h1200" stroke="#1d2b1f" stroke-width="6" stroke-linejoin="round" stroke-linecap="round"/><rect x="260" y="500" width="170" height="60" rx="10" fill="#7cb518" stroke="#1d2b1f" stroke-width="6" stroke-linejoin="round" stroke-linecap="round"/><path d="M270 530 h150" stroke="#1d2b1f" stroke-width="3" opacity=".25"/><circle cx="345" cy="528" r="14" fill="#ffffff" stroke="#1d2b1f" stroke-width="4" stroke-linejoin="round" stroke-linecap="round"/><rect x="430" y="420" width="170" height="140" rx="10" fill="#ffc93c" stroke="#1d2b1f" stroke-width="6" stroke-linejoin="round" stroke-linecap="round"/><path d="M440 450 h150" stroke="#1d2b1f" stroke-width="3" opacity=".25"/><path d="M440 490 h150" stroke="#1d2b1f" stroke-width="3" opacity=".25"/><path d="M440 530 h150" stroke="#1d2b1f" stroke-width="3" opacity=".25"/><circle cx="515" cy="448" r="14" fill="#ffffff" stroke="#1d2b1f" stroke-width="4" stroke-linejoin="round" stroke-linecap="round"/><rect x="600" y="340" width="170" height="220" rx="10" fill="#ff5a36" stroke="#1d2b1f" stroke-width="6" stroke-linejoin="round" stroke-linecap="round"/><path d="M610 370 h150" stroke="#1d2b1f" stroke-width="3" opacity=".25"/><path d="M610 410 h150" stroke="#1d2b1f" stroke-width="3" opacity=".25"/><path d="M610 450 h150" stroke="#1d2b1f" stroke-width="3" opacity=".25"/><path d="M610 490 h150" stroke="#1d2b1f" stroke-width="3" opacity=".25"/><path d="M610 530 h150" stroke="#1d2b1f" stroke-width="3" opacity=".25"/><circle cx="685" cy="368" r="14" fill="#ffffff" stroke="#1d2b1f" stroke-width="4" stroke-linejoin="round" stroke-linecap="round"/><rect x="770" y="260" width="170" height="300" rx="10" fill="#7a2e5c" stroke="#1d2b1f" stroke-width="6" stroke-linejoin="round" stroke-linecap="round"/><path d="M780 290 h150" stroke="#1d2b1f" stroke-width="3" opacity=".25"/><path d="M780 330 h150" stroke="#1d2b1f" stroke-width="3" opacity=".25"/><path d="M780 370 h150" stroke="#1d2b1f" stroke-width="3" opacity=".25"/><path d="M780 410 h150" stroke="#1d2b1f" stroke-width="3" opacity=".25"/><path d="M780 450 h150" stroke="#1d2b1f" stroke-width="3" opacity=".25"/><path d="M780 490 h150" stroke="#1d2b1f" stroke-width="3" opacity=".25"/><path d="M780 530 h150" stroke="#1d2b1f" stroke-width="3" opacity=".25"/><circle cx="855" cy="288" r="14" fill="#ffffff" stroke="#1d2b1f" stroke-width="4" stroke-linejoin="round" stroke-linecap="round"/><rect x="940" y="180" width="170" height="380" rx="10" fill="#3d4f9c" stroke="#1d2b1f" stroke-width="6" stroke-linejoin="round" stroke-linecap="round"/><path d="M950 210 h150" stroke="#1d2b1f" stroke-width="3" opacity=".25"/><path d="M950 250 h150" stroke="#1d2b1f" stroke-width="3" opacity=".25"/><path d="M950 290 h150" stroke="#1d2b1f" stroke-width="3" opacity=".25"/><path d="M950 330 h150" stroke="#1d2b1f" stroke-width="3" opacity=".25"/><path d="M950 370 h150" stroke="#1d2b1f" stroke-width="3" opacity=".25"/><path d="M950 410 h150" stroke="#1d2b1f" stroke-width="3" opacity=".25"/><path d="M950 450 h150" stroke="#1d2b1f" stroke-width="3" opacity=".25"/><path d="M950 490 h150" stroke="#1d2b1f" stroke-width="3" opacity=".25"/><path d="M950 530 h150" stroke="#1d2b1f" stroke-width="3" opacity=".25"/><circle cx="1025" cy="208" r="14" fill="#ffffff" stroke="#1d2b1f" stroke-width="4" stroke-linejoin="round" stroke-linecap="round"/><path d="M825 210 h60 l10 90 h-80z" fill="#ff5a36" stroke="#1d2b1f" stroke-width="6" stroke-linejoin="round" stroke-linecap="round"/><path d="M835 300 l-14 70 M875 300 l20 60" stroke="#1d2b1f" stroke-width="6" stroke-linejoin="round" stroke-linecap="round"/><path d="M885 230 l60 -40" stroke="#1d2b1f" stroke-width="6" stroke-linejoin="round" stroke-linecap="round"/><g transform="translate(955 180) rotate(-30) scale(0.35)"><rect x="-70" y="-8" width="140" height="16" rx="6" fill="#9aa39c" stroke="#1d2b1f" stroke-width="6" stroke-linejoin="round" stroke-linecap="round"/><rect x="-95" y="-32" width="30" height="64" rx="8" fill="#1d2b1f" stroke="#1d2b1f" stroke-width="6" stroke-linejoin="round" stroke-linecap="round"/><rect x="65" y="-32" width="30" height="64" rx="8" fill="#1d2b1f" stroke="#1d2b1f" stroke-width="6" stroke-linejoin="round" stroke-linecap="round"/><rect x="-112" y="-22" width="20" height="44" rx="6" fill="#1d2b1f" stroke="#1d2b1f" stroke-width="6" stroke-linejoin="round" stroke-linecap="round"/><rect x="92" y="-22" width="20" height="44" rx="6" fill="#1d2b1f" stroke="#1d2b1f" stroke-width="6" stroke-linejoin="round" stroke-linecap="round"/></g><circle cx="855" cy="170" r="36" fill="#f2b58a" stroke="#1d2b1f" stroke-width="6" stroke-linejoin="round" stroke-linecap="round"/><path d="M819 162 q7.2 -43.199999999999996 36 -36 q28.8 -7.2 36 32.4 q-14.4 -21.599999999999998 -36 -18.0 q-21.599999999999998 0 -36 21.599999999999998z" fill="#1d2b1f"/><circle cx="842.4" cy="174" r="6" fill="#1d2b1f"/><circle cx="867.6" cy="174" r="6" fill="#1d2b1f"/><path d="M844.2 182.6 q10.799999999999999 10.799999999999999 21.599999999999998 0" fill="none" stroke="#1d2b1f" stroke-width="4" stroke-linejoin="round" stroke-linecap="round"/><circle cx="833.4" cy="180.8" r="9" fill="#ff5a36" opacity=".45"/><circle cx="876.6" cy="180.8" r="9" fill="#ff5a36" opacity=".45"/><rect x="40" y="420" width="200" height="130" rx="10" fill="#ffffff" stroke="#1d2b1f" stroke-width="6" stroke-linejoin="round" stroke-linecap="round"/><path d="M60 460 h150 M60 490 h120 M60 520 h140" stroke="#1d2b1f" stroke-width="5" opacity=".5"/><rect x="40" y="420" width="24" height="130" fill="#ff5a36" stroke="#1d2b1f" stroke-width="4" stroke-linejoin="round" stroke-linecap="round"/><path d="M140 330 Q500 60 1080 110" fill="none" stroke="#1d2b1f" stroke-width="6" stroke-dasharray="4 16" stroke-linecap="round"/><path d="M1060 90 l30 20 l-34 16" fill="none" stroke="#1d2b1f" stroke-width="6" stroke-linejoin="round" stroke-linecap="round"/></svg>