<svg xmlns="http://www.w3.org/2000/svg" viewBox="0 0 1200 675" width="1200" height="675" role="img" aria-labelledby="t d"><title id="t">A steaming brew kettle on a burner beside a fermenting bucket with an airlock, malt grains and hop cones</title><desc id="d">A steaming brew kettle on a burner beside a fermenting bucket with an airlock, malt grains and hop cones</desc><g stroke-linejoin="round" stroke-linecap="round"><defs><linearGradient id="g34" x1="0" y1="0" x2="0" y2="1"><stop offset="0" stop-color="#ffe8d1"/><stop offset="1" stop-color="#ffd0a3"/></linearGradient></defs><rect width="1200" height="675" fill="url(#g34)"/><circle cx="300" cy="150" r="170" fill="#fff" opacity="0.35"/><rect x="0" y="0" width="1200" height="120" fill="#fff" opacity=".25"/><path d="M0 600 Q600.0 570 1200 600 L1200 675 L0 675 Z" fill="#c98b52"/><g transform="translate(340 540) scale(1.35)"><path d="M-50 30 Q-58 14 -44 0 Q-48 14 -36 18 Q-34 26 -42 30 Z" fill="#ff9f1c" stroke="#d7263d" stroke-width="2.5"/><path d="M-20 30 Q-28 14 -14 0 Q-18 14 -6 18 Q-4 26 -12 30 Z" fill="#ff9f1c" stroke="#d7263d" stroke-width="2.5"/><path d="M10 30 Q2 14 16 0 Q12 14 24 18 Q26 26 18 30 Z" fill="#ff9f1c" stroke="#d7263d" stroke-width="2.5"/><path d="M40 30 Q32 14 46 0 Q42 14 54 18 Q56 26 48 30 Z" fill="#ff9f1c" stroke="#d7263d" stroke-width="2.5"/><rect x="-90" y="26" width="180" height="16" rx="4" fill="#3b3b3b" stroke="#2a1a0e" stroke-width="4"/><path d="M-80 0 L-86 -150 L86 -150 L80 0 Z" fill="#c9d3d8" stroke="#2a1a0e" stroke-width="4"/><ellipse cx="0" cy="-150" rx="86" ry="14" fill="#b76a23" stroke="#2a1a0e" stroke-width="4"/><path d="M-86 -120 Q-112 -120 -110 -96 Q-100 -92 -84 -100" fill="none" stroke="#2a1a0e" stroke-width="6"/><path d="M86 -120 Q112 -120 110 -96 Q100 -92 84 -100" fill="none" stroke="#2a1a0e" stroke-width="6"/><rect x="-66" y="-136" width="10" height="120" rx="5" fill="#fff" opacity=".5"/><path d="M-40 -172 q-16 -22 0 -44 q16 -22 0 -44" fill="none" stroke="#fff" stroke-width="7" opacity=".85"/><path d="M0 -172 q-16 -22 0 -44 q16 -22 0 -44" fill="none" stroke="#fff" stroke-width="7" opacity=".85"/><path d="M40 -172 q-16 -22 0 -44 q16 -22 0 -44" fill="none" stroke="#fff" stroke-width="7" opacity=".85"/></g><g transform="translate(800 600) scale(1.3)"><path d="M-62 0 L62 0 L72 -170 L-72 -170 Z" fill="#f4f1ea" stroke="#2a1a0e" stroke-width="4"/><path d="M-66 -110 L66 -110 L62 -8 L-58 -8 Z" fill="#e8b04a" opacity=".85"/><rect x="-80" y="-184" width="160" height="18" rx="5" fill="#e2e8ea" stroke="#2a1a0e" stroke-width="4"/><rect x="-6" y="-214" width="12" height="32" fill="#cfd8dc" stroke="#2a1a0e" stroke-width="3"/><path d="M-4 -214 Q-24 -226 -14 -244 Q0 -258 14 -244 Q24 -226 4 -214" fill="#e9f3f7" stroke="#2a1a0e" stroke-width="3"/><circle cx="0" cy="-270" r="6" fill="none" stroke="#fff" stroke-width="3"/><circle cx="10" cy="-292" r="4" fill="none" stroke="#fff" stroke-width="3"/><rect x="-40" y="-72" width="80" height="36" rx="4" fill="#fff7ea" stroke="#2a1a0e" stroke-width="3"/><path d="M-26 -54 L26 -54" stroke="#2a1a0e" stroke-width="3"/></g><g transform="translate(1060 600) scale(1.0)"><path d="M-90 0 Q-60 -60 0 -70 Q60 -60 90 0 Z" fill="#e8c77a" stroke="#2a1a0e" stroke-width="4"/><ellipse cx="17" cy="-20" rx="6" ry="3.5" transform="rotate(176 17 -20)" fill="#c9983f"/><ellipse cx="-5" cy="-11" rx="6" ry="3.5" transform="rotate(166 -5 -11)" fill="#c9983f"/><ellipse cx="-18" cy="-14" rx="6" ry="3.5" transform="rotate(97 -18 -14)" fill="#c9983f"/><ellipse cx="6" cy="-28" rx="6" ry="3.5" transform="rotate(3 6 -28)" fill="#c9983f"/><ellipse cx="32" cy="-36" rx="6" ry="3.5" transform="rotate(46 32 -36)" fill="#c9983f"/><ellipse cx="58" cy="-19" rx="6" ry="3.5" transform="rotate(40 58 -19)" fill="#c9983f"/><ellipse cx="17" cy="-34" rx="6" ry="3.5" transform="rotate(33 17 -34)" fill="#c9983f"/><ellipse cx="-29" cy="-10" rx="6" ry="3.5" transform="rotate(138 -29 -10)" fill="#c9983f"/><ellipse cx="53" cy="-26" rx="6" ry="3.5" transform="rotate(46 53 -26)" fill="#c9983f"/><ellipse cx="65" cy="-13" rx="6" ry="3.5" transform="rotate(76 65 -13)" fill="#c9983f"/><ellipse cx="-24" cy="-17" rx="6" ry="3.5" transform="rotate(150 -24 -17)" fill="#c9983f"/></g><g transform="translate(1060 440) rotate(20) scale(1.0)"><path d="M0 -44 Q2 -60 -6 -70" fill="none" stroke="#4d6b22" stroke-width="4"/><path d="M-4 -62 Q-34 -80 -40 -56 Q-18 -48 -4 -62 Z" fill="#7fb241" stroke="#2a1a0e" stroke-width="3"/><path d="M-12 -42 Q0 -14 12 -42 Q0 -48 -12 -42 Z" fill="#8cc04b" stroke="#2a1a0e" stroke-width="3"/><path d="M-22 -30 Q-10 -2 2 -30 Q-10 -36 -22 -30 Z" fill="#9fd05a" stroke="#2a1a0e" stroke-width="3"/><path d="M-2 -30 Q10 -2 22 -30 Q10 -36 -2 -30 Z" fill="#9fd05a" stroke="#2a1a0e" stroke-width="3"/><path d="M-28 -16 Q-16 12 -4 -16 Q-16 -22 -28 -16 Z" fill="#7fb241" stroke="#2a1a0e" stroke-width="3"/><path d="M-12 -16 Q0 12 12 -16 Q0 -22 -12 -16 Z" fill="#7fb241" stroke="#2a1a0e" stroke-width="3"/><path d="M4 -16 Q16 12 28 -16 Q16 -22 4 -16 Z" fill="#7fb241" stroke="#2a1a0e" stroke-width="3"/><path d="M-22 -2 Q-10 26 2 -2 Q-10 -8 -22 -2 Z" fill="#6fa336" stroke="#2a1a0e" stroke-width="3"/><path d="M-2 -2 Q10 26 22 -2 Q10 -8 -2 -2 Z" fill="#6fa336" stroke="#2a1a0e" stroke-width="3"/><path d="M-12 12 Q0 40 12 12 Q0 6 -12 12 Z" fill="#5f8f2f" stroke="#2a1a0e" stroke-width="3"/></g><g transform="translate(1130 480) rotate(-30) scale(0.8)"><path d="M0 -44 Q2 -60 -6 -70" fill="none" stroke="#4d6b22" stroke-width="4"/><path d="M-4 -62 Q-34 -80 -40 -56 Q-18 -48 -4 -62 Z" fill="#7fb241" stroke="#2a1a0e" stroke-width="3"/><path d="M-12 -42 Q0 -14 12 -42 Q0 -48 -12 -42 Z" fill="#8cc04b" stroke="#2a1a0e" stroke-width="3"/><path d="M-22 -30 Q-10 -2 2 -30 Q-10 -36 -22 -30 Z" fill="#9fd05a" stroke="#2a1a0e" stroke-width="3"/><path d="M-2 -30 Q10 -2 22 -30 Q10 -36 -2 -30 Z" fill="#9fd05a" stroke="#2a1a0e" stroke-width="3"/><path d="M-28 -16 Q-16 12 -4 -16 Q-16 -22 -28 -16 Z" fill="#7fb241" stroke="#2a1a0e" stroke-width="3"/><path d="M-12 -16 Q0 12 12 -16 Q0 -22 -12 -16 Z" fill="#7fb241" stroke="#2a1a0e" stroke-width="3"/><path d="M4 -16 Q16 12 28 -16 Q16 -22 4 -16 Z" fill="#7fb241" stroke="#2a1a0e" stroke-width="3"/><path d="M-22 -2 Q-10 26 2 -2 Q-10 -8 -22 -2 Z" fill="#6fa336" stroke="#2a1a0e" stroke-width="3"/><path d="M-2 -2 Q10 26 22 -2 Q10 -8 -2 -2 Z" fill="#6fa336" stroke="#2a1a0e" stroke-width="3"/><path d="M-12 12 Q0 40 12 12 Q0 6 -12 12 Z" fill="#5f8f2f" stroke="#2a1a0e" stroke-width="3"/></g><g transform="translate(580 600) scale(0.9)"><rect x="-16" y="-200" width="32" height="190" rx="16" fill="#fff" stroke="#2a1a0e" stroke-width="4"/><rect x="-7" y="-96" width="14" height="86" fill="#d7263d"/><circle cy="0" r="26" fill="#d7263d" stroke="#2a1a0e" stroke-width="4"/><path d="M16 -40 h14" stroke="#2a1a0e" stroke-width="3"/><path d="M16 -68 h14" stroke="#2a1a0e" stroke-width="3"/><path d="M16 -96 h14" stroke="#2a1a0e" stroke-width="3"/><path d="M16 -124 h14" stroke="#2a1a0e" stroke-width="3"/><path d="M16 -152 h14" stroke="#2a1a0e" stroke-width="3"/><path d="M16 -180 h14" stroke="#2a1a0e" stroke-width="3"/></g></g></svg>
