<svg xmlns="http://www.w3.org/2000/svg" viewBox="0 0 1200 675" width="1200" height="675" role="img" aria-labelledby="t d"><title id="t">A beer tap pouring golden beer into a tilted glass, with a dotted arc showing the 45-degree angle</title><desc id="d">A beer tap pouring golden beer into a tilted glass, with a dotted arc showing the 45-degree angle</desc><g stroke-linejoin="round" stroke-linecap="round"><defs><linearGradient id="g39" x1="0" y1="0" x2="0" y2="1"><stop offset="0" stop-color="#fff0d9"/><stop offset="1" stop-color="#ffd9a8"/></linearGradient></defs><rect width="1200" height="675" fill="url(#g39)"/><circle cx="820" cy="200" r="200" fill="#fff" opacity="0.35"/><rect x="0" y="0" width="1200" height="90" fill="#6b3a1a"/><rect x="0" y="90" width="1200" height="14" fill="#2a1a0e"/><rect x="340" y="104" width="40" height="120" fill="#cfd8dc" stroke="#2a1a0e" stroke-width="4"/><g transform="translate(540 250) scale(1.6)"><rect x="-160" y="-30" width="200" height="40" rx="12" fill="#cfd8dc" stroke="#2a1a0e" stroke-width="4"/><path d="M20 -10 L40 -10 Q60 -10 60 10 L60 40 L44 40 L44 16 Q44 8 36 8 L20 8 Z" fill="#dfe6e9" stroke="#2a1a0e" stroke-width="4"/><rect x="12" y="-120" width="26" height="96" rx="10" fill="#c2415a" stroke="#2a1a0e" stroke-width="4" transform="rotate(18 25 -24)"/><path d="M52 40 Q56 120 70 200" fill="none" stroke="#f0a53a" stroke-width="12"/></g><g transform="translate(670 600) rotate(-35) scale(1.5)"><defs><clipPath id="clip40"><path d="M-42 0 L42 0 L55 -170 L-55 -170 Z"/></clipPath></defs><path d="M-42 0 L42 0 L55 -170 L-55 -170 Z" fill="#eef7fa"/><g clip-path="url(#clip40)"><rect x="-90" y="-105.4" width="180" height="107.4" fill="#f2b640"/><rect x="-90" y="-125.4" width="180" height="20" fill="#fffaf0"/><circle cx="-2" cy="-34" r="4.1" fill="#fff" opacity=".55"/><circle cx="-1" cy="-18" r="4.2" fill="#fff" opacity=".55"/><circle cx="-21" cy="-91" r="2.5" fill="#fff" opacity=".55"/><circle cx="30" cy="-56" r="2.6" fill="#fff" opacity=".55"/><circle cx="20" cy="-95" r="3.8" fill="#fff" opacity=".55"/><circle cx="7" cy="-72" r="4.1" fill="#fff" opacity=".55"/><circle cx="-17" cy="-75" r="2.7" fill="#fff" opacity=".55"/><rect x="-34" y="-156" width="8" height="119" rx="4" fill="#fff" opacity=".45"/></g><path d="M-42 0 L42 0 L55 -170 L-55 -170 Z" fill="none" stroke="#2a1a0e" stroke-width="4"/></g><path d="M520 430 A170 170 0 0 1 660 330" fill="none" stroke="#c2415a" stroke-width="5" stroke-dasharray="12 10"/><text x="455" y="400" font-family="Georgia,serif" font-size="44" font-weight="700" fill="#c2415a">45°</text><g transform="translate(1000 600) rotate(0) scale(1.2)"><defs><clipPath id="clip41"><path d="M-42 0 L42 0 L55 -170 L-55 -170 Z"/></clipPath></defs><path d="M-42 0 L42 0 L55 -170 L-55 -170 Z" fill="#eef7fa"/><g clip-path="url(#clip41)"><rect x="-90" y="-127.5" width="180" height="129.5" fill="#f2b640"/><rect x="-90" y="-159.5" width="180" height="32" fill="#fffaf0"/><circle cx="28" cy="-19" r="2.2" fill="#fff" opacity=".55"/><circle cx="27" cy="-16" r="4.2" fill="#fff" opacity=".55"/><circle cx="19" cy="-43" r="2.3" fill="#fff" opacity=".55"/><circle cx="6" cy="-113" r="3.5" fill="#fff" opacity=".55"/><circle cx="-10" cy="-85" r="4.4" fill="#fff" opacity=".55"/><circle cx="16" cy="-30" r="4.0" fill="#fff" opacity=".55"/><circle cx="29" cy="-103" r="2.8" fill="#fff" opacity=".55"/><rect x="-34" y="-156" width="8" height="119" rx="4" fill="#fff" opacity=".45"/></g><path d="M-42 0 L42 0 L55 -170 L-55 -170 Z" fill="none" stroke="#2a1a0e" stroke-width="4"/><g transform="translate(0 -63.75)"><ellipse cx="-14" cy="-6" rx="4.5" ry="6" fill="#2a1a0e"/><ellipse cx="14" cy="-6" rx="4.5" ry="6" fill="#2a1a0e"/><circle cx="-12" cy="-8" r="1.6" fill="#fff"/><circle cx="16" cy="-8" r="1.6" fill="#fff"/><circle cx="-24" cy="6" r="6" fill="#ff8f8f" opacity=".55"/><circle cx="24" cy="6" r="6" fill="#ff8f8f" opacity=".55"/><path d="M-10 6 Q0 18 10 6" fill="#8a2e22" stroke="#2a1a0e" stroke-width="3"/></g></g><path d="M0 612 Q600.0 582 1200 612 L1200 675 L0 675 Z" fill="#a0612f"/></g></svg>
