<svg xmlns="http://www.w3.org/2000/svg" viewBox="0 0 1200 630" width="1200" height="630" role="img" aria-labelledby="t"><title id="t">Discount Deal Me: live deals, scored and checked</title><rect width="1200" height="630" fill="#f4f4f5"/><g stroke="#ebebee" stroke-width="1"><path d="M40 0V630"/><path d="M80 0V630"/><path d="M120 0V630"/><path d="M160 0V630"/><path d="M200 0V630"/><path d="M240 0V630"/><path d="M280 0V630"/><path d="M320 0V630"/><path d="M360 0V630"/><path d="M400 0V630"/><path d="M440 0V630"/><path d="M480 0V630"/><path d="M520 0V630"/><path d="M560 0V630"/><path d="M600 0V630"/><path d="M640 0V630"/><path d="M680 0V630"/><path d="M720 0V630"/><path d="M760 0V630"/><path d="M800 0V630"/><path d="M840 0V630"/><path d="M880 0V630"/><path d="M920 0V630"/><path d="M960 0V630"/><path d="M1000 0V630"/><path d="M1040 0V630"/><path d="M1080 0V630"/><path d="M1120 0V630"/><path d="M1160 0V630"/><path d="M0 40H1200"/><path d="M0 80H1200"/><path d="M0 120H1200"/><path d="M0 160H1200"/><path d="M0 200H1200"/><path d="M0 240H1200"/><path d="M0 280H1200"/><path d="M0 320H1200"/><path d="M0 360H1200"/><path d="M0 400H1200"/><path d="M0 440H1200"/><path d="M0 480H1200"/><path d="M0 520H1200"/><path d="M0 560H1200"/><path d="M0 600H1200"/></g><rect x="80" y="80" width="88" height="88" rx="22" fill="#0b0d12"/><g transform="translate(80 80) scale(1.375)"><path d="M18 46 L46 18" stroke="#fff" stroke-width="5" stroke-linecap="round"/><circle cx="21" cy="21" r="6" fill="none" stroke="#fff" stroke-width="5"/><circle cx="43" cy="43" r="6" fill="#ea580c"/></g><text x="80" y="300" font-family="Inter, 'Helvetica Neue', Arial, sans-serif" font-size="72" font-weight="800" fill="#0b0d12" text-anchor="start">Discount Deal Me</text><text x="80" y="370" font-family="Inter, 'Helvetica Neue', Arial, sans-serif" font-size="40" font-weight="500" fill="#52525b" text-anchor="start">Live deals, scored and checked.</text><rect x="80" y="430" width="250" height="40" rx="20" fill="#ffedd5"/><text x="205.0" y="457.2" font-family="Inter, 'Helvetica Neue', Arial, sans-serif" font-size="20" font-weight="700" fill="#ea580c" text-anchor="middle">Deal Score 0-100</text><rect x="350" y="430" width="230" height="40" rx="20" fill="#ffffff"/><text x="465.0" y="457.2" font-family="Inter, 'Helvetica Neue', Arial, sans-serif" font-size="20" font-weight="700" fill="#0b0d12" text-anchor="middle">Network-checked</text><rect x="600" y="430" width="190" height="40" rx="20" fill="#ffffff"/><text x="695.0" y="457.2" font-family="Inter, 'Helvetica Neue', Arial, sans-serif" font-size="20" font-weight="700" fill="#0b0d12" text-anchor="middle">AI summaries</text></svg>