<svg xmlns="http://www.w3.org/2000/svg" viewBox="0 0 1200 675" role="img" aria-labelledby="t d">
<title id="t">A balance scale weighing one big jar against three small jars under a supermarket shelf label, with a price-tag character holding a calculator</title>
<desc id="d">A balance scale weighing one big jar against three small jars under a supermarket shelf label, with a price-tag character holding a calculator. Illustration by Discount Deal Me.</desc>
<rect width="1200" height="675" fill="#fff7ea"/>
<rect x="968" y="647" width="14" height="6" rx="3" fill="#ffd23f" opacity=".7" transform="rotate(35 968 647)"/>
<path d="M401 18 L404 24 L410 26 L404 28 L401 34 L398 28 L392 26 L398 24 Z" fill="#ffd23f" opacity=".8"/>
<rect x="969" y="639" width="14" height="6" rx="3" fill="#f4511e" opacity=".7" transform="rotate(141 969 639)"/>
<path d="M103 400 L106 406 L112 408 L106 410 L103 416 L100 410 L94 408 L100 406 Z" fill="#2ec4b6" opacity=".8"/>
<circle cx="945" cy="452" r="5" fill="#2ec4b6" opacity=".7"/>
<path d="M125 125 L128 131 L134 133 L128 135 L125 141 L122 135 L116 133 L122 131 Z" fill="#2ec4b6" opacity=".8"/>
<circle cx="149" cy="412" r="6" fill="#9ad1ff" opacity=".7"/>
<rect x="439" y="249" width="14" height="6" rx="3" fill="#9ad1ff" opacity=".7" transform="rotate(22 439 249)"/>
<rect x="566" y="234" width="14" height="6" rx="3" fill="#b8a1ff" opacity=".7" transform="rotate(87 566 234)"/>
<circle cx="108" cy="224" r="7" fill="#9ad1ff" opacity=".7"/>
<circle cx="132" cy="407" r="4" fill="#b8a1ff" opacity=".7"/>
<circle cx="504" cy="454" r="8" fill="#9ad1ff" opacity=".7"/>
<circle cx="27" cy="144" r="5" fill="#ff8fab" opacity=".7"/>
<circle cx="696" cy="28" r="8" fill="#f4511e" opacity=".7"/>
<path d="M55 524 L58 530 L64 532 L58 534 L55 540 L52 534 L46 532 L52 530 Z" fill="#f4511e" opacity=".8"/>
<rect x="1037" y="570" width="14" height="6" rx="3" fill="#2ec4b6" opacity=".7" transform="rotate(17 1037 570)"/>
<circle cx="835" cy="216" r="9" fill="#9ad1ff" opacity=".7"/>
<path d="M317 188 L320 194 L326 196 L320 198 L317 204 L314 198 L308 196 L314 194 Z" fill="#ff8fab" opacity=".8"/>
<path d="M0 590 Q300.0 560 600.0 590 T1200 590 V990 H0 Z" fill="#b8a1ff" opacity=".35"/>
<rect x="300" y="520" width="600" height="30" rx="10" fill="#22223b"/>
<path d="M600 520 V180" stroke="#22223b" stroke-width="16" stroke-linecap="round"/>
<path d="M360 220 L840 180" stroke="#22223b" stroke-width="14" stroke-linecap="round"/>
<circle cx="600" cy="200" r="18" fill="#ffd23f" stroke="#22223b" stroke-width="6"/>
<path d="M360 220 L300 340 M360 220 L420 340" stroke="#22223b" stroke-width="4"/><path d="M280 340 H440 Q430 370 360 370 Q290 370 280 340 Z" fill="#9ad1ff" stroke="#22223b" stroke-width="5"/>
<path d="M840 180 L780 300 M840 180 L900 300" stroke="#22223b" stroke-width="4"/><path d="M760 300 H920 Q910 330 840 330 Q770 330 760 300 Z" fill="#9ad1ff" stroke="#22223b" stroke-width="5"/>
<rect x="315" y="210" width="90" height="130" rx="18" fill="#ffd23f" stroke="#22223b" stroke-width="6"/><rect x="310" y="195" width="100" height="26" rx="8" fill="#f4511e" stroke="#22223b" stroke-width="5"/><rect x="330" y="250" width="60" height="40" rx="6" fill="#ffffff"/>
<rect x="772" y="245" width="40" height="55" rx="10" fill="#ffd23f" stroke="#22223b" stroke-width="5"/><rect x="768" y="235" width="48" height="14" rx="5" fill="#f4511e" stroke="#22223b" stroke-width="4"/><rect x="822" y="245" width="40" height="55" rx="10" fill="#ffd23f" stroke="#22223b" stroke-width="5"/><rect x="818" y="235" width="48" height="14" rx="5" fill="#f4511e" stroke="#22223b" stroke-width="4"/><rect x="872" y="245" width="40" height="55" rx="10" fill="#ffd23f" stroke="#22223b" stroke-width="5"/><rect x="868" y="235" width="48" height="14" rx="5" fill="#f4511e" stroke="#22223b" stroke-width="4"/>
<g transform="translate(830 420)"><rect x="-150" y="-50" width="300" height="100" rx="10" fill="#ffffff" stroke="#22223b" stroke-width="5"/><rect x="-150" y="-50" width="110" height="100" rx="10" fill="#ffd23f" stroke="#22223b" stroke-width="5"/>
<text x="-95" y="12" font-family="'Bricolage Grotesque', 'Arial Rounded MT Bold', Arial, sans-serif" font-size="30" font-weight="800" text-anchor="middle" fill="#22223b">per oz</text>
<rect x="-20" y="-25" width="140" height="16" rx="8" fill="#22223b" opacity=".6"/><rect x="-20" y="8" width="100" height="12" rx="6" fill="#22223b" opacity=".3"/></g>
<g transform="translate(160 450) rotate(0) scale(1.0)">
  <path d="M5 45 L0 85" stroke="#22223b" stroke-width="7" stroke-linecap="round"/><path d="M45 45 L50 85" stroke="#22223b" stroke-width="7" stroke-linecap="round"/>
  <ellipse cx="-6" cy="88" rx="16" ry="8" fill="#22223b"/><ellipse cx="56" cy="88" rx="16" ry="8" fill="#22223b"/>
  <path d="M-62 20 Q-85 25 -92 45" stroke="#22223b" stroke-width="7" fill="none" stroke-linecap="round"/><circle cx="-94" cy="50" r="9" fill="#ffffff" stroke="#22223b" stroke-width="5"/>
  <path d="M78 8 Q100 10 108 -8" stroke="#22223b" stroke-width="7" fill="none" stroke-linecap="round"/><circle cx="110" cy="-12" r="9" fill="#ffffff" stroke="#22223b" stroke-width="5"/>
  <path d="M-95 0 L-58 -47 L70 -47 Q82 -47 82 -35 L82 35 Q82 47 70 47 L-58 47 Z" fill="#2ec4b6" stroke="#22223b" stroke-width="6" stroke-linejoin="round"/>
  <circle cx="-55" cy="0" r="10" fill="#fff7ea" stroke="#22223b" stroke-width="5"/>
  <circle cx="5" cy="-10" r="11" fill="#ffffff"/><circle cx="40" cy="-10" r="11" fill="#ffffff"/>
  <circle cx="8" cy="-8" r="6" fill="#22223b"/><circle cx="43" cy="-8" r="6" fill="#22223b"/>
  <path d="M8 14 Q23 30 40 14" stroke="#22223b" stroke-width="5" fill="none" stroke-linecap="round"/>
  <circle cx="-12" cy="10" r="6" fill="#ff8fab" opacity=".8"/><circle cx="60" cy="10" r="6" fill="#ff8fab" opacity=".8"/>
</g>
<g transform="translate(275 420) rotate(10)"><rect x="-30" y="-44" width="60" height="88" rx="10" fill="#22223b"/><rect x="-22" y="-36" width="44" height="22" rx="4" fill="#2ec4b6"/><rect x="-22" y="-6" width="12" height="10" rx="2" fill="#ffffff"/><rect x="-6" y="-6" width="12" height="10" rx="2" fill="#ffffff"/><rect x="10" y="-6" width="12" height="10" rx="2" fill="#ffffff"/><rect x="-22" y="8" width="12" height="10" rx="2" fill="#ffffff"/><rect x="-6" y="8" width="12" height="10" rx="2" fill="#ffffff"/><rect x="10" y="8" width="12" height="10" rx="2" fill="#ffffff"/><rect x="-22" y="22" width="12" height="10" rx="2" fill="#ffffff"/><rect x="-6" y="22" width="12" height="10" rx="2" fill="#ffffff"/><rect x="10" y="22" width="12" height="10" rx="2" fill="#ffffff"/></g>

</svg>
