<svg xmlns="http://www.w3.org/2000/svg" viewBox="0 0 1200 675" role="img" aria-labelledby="t d"><title id="t">A person at a fork in the road between term and whole life</title><desc id="d">A signpost points left to TERM, marked by an hourglass, and right to WHOLE, marked by a tree and a piggy bank.</desc><rect width="1200" height="675" fill="#e6f7fb"/><path d="M0 526 Q300.0 486 600.0 526 T1200 526 V675 H0Z" fill="#d9f5f1"/><g transform="translate(1080 100)"><rect x="-4" y="-70" width="8" height="18" rx="4" fill="#ffc857" transform="rotate(0)"/><rect x="-4" y="-70" width="8" height="18" rx="4" fill="#ffc857" transform="rotate(30)"/><rect x="-4" y="-70" width="8" height="18" rx="4" fill="#ffc857" transform="rotate(60)"/><rect x="-4" y="-70" width="8" height="18" rx="4" fill="#ffc857" transform="rotate(90)"/><rect x="-4" y="-70" width="8" height="18" rx="4" fill="#ffc857" transform="rotate(120)"/><rect x="-4" y="-70" width="8" height="18" rx="4" fill="#ffc857" transform="rotate(150)"/><rect x="-4" y="-70" width="8" height="18" rx="4" fill="#ffc857" transform="rotate(180)"/><rect x="-4" y="-70" width="8" height="18" rx="4" fill="#ffc857" transform="rotate(210)"/><rect x="-4" y="-70" width="8" height="18" rx="4" fill="#ffc857" transform="rotate(240)"/><rect x="-4" y="-70" width="8" height="18" rx="4" fill="#ffc857" transform="rotate(270)"/><rect x="-4" y="-70" width="8" height="18" rx="4" fill="#ffc857" transform="rotate(300)"/><rect x="-4" y="-70" width="8" height="18" rx="4" fill="#ffc857" transform="rotate(330)"/><circle r="40" fill="#ffc857"/></g><g transform="translate(200 90) scale(1.0)" fill="#fff"><ellipse cx="0" cy="0" rx="60" ry="26"/><ellipse cx="-34" cy="8" rx="36" ry="20"/><ellipse cx="36" cy="8" rx="40" ry="20"/><ellipse cx="6" cy="-18" rx="34" ry="24"/></g><g transform="translate(640 70) scale(0.7)" fill="#fff"><ellipse cx="0" cy="0" rx="60" ry="26"/><ellipse cx="-34" cy="8" rx="36" ry="20"/><ellipse cx="36" cy="8" rx="40" ry="20"/><ellipse cx="6" cy="-18" rx="34" ry="24"/></g><path d="M600 675 L560 520 Q540 470 380 430 L120 380 L150 360 L400 405 Q575 440 600 480 Q625 440 800 405 L1050 360 L1080 380 L820 430 Q660 470 640 520 L600 675Z" fill="#f3e3c8"/><rect x="590" y="330" width="20" height="220" fill="#0d3b3e"/><path d="M420 330 H585 V380 H420 L395 355Z" fill="#ff7a59" stroke="#0d3b3e" stroke-width="4"/><path d="M615 330 H780 L805 355 L780 380 H615Z" fill="#2ec4b6" stroke="#0d3b3e" stroke-width="4"/><text x="500" y="364" text-anchor="middle" font-family="Arial" font-weight="700" font-size="24" fill="#fff">TERM</text><text x="700" y="364" text-anchor="middle" font-family="Arial" font-weight="700" font-size="24" fill="#0d3b3e">WHOLE</text><g transform="translate(230 250)"><rect x="-60" y="-10" width="120" height="16" rx="6" fill="#0d3b3e"/><rect x="-60" y="180" width="120" height="16" rx="6" fill="#0d3b3e"/><path d="M-45 6 H45 Q45 70 6 93 Q45 116 45 180 H-45 Q-45 116 -6 93 Q-45 70 -45 6Z" fill="#fff" stroke="#0d3b3e" stroke-width="5"/><path d="M-30 30 H30 Q25 70 0 86 Q-25 70 -30 30Z" fill="#ffc857"/><path d="M-34 176 Q0 130 34 176Z" fill="#ffc857"/><rect x="-2" y="90" width="4" height="60" fill="#ffc857"/></g><rect x="950" y="230" width="30" height="200" fill="#8a5a3b"/><circle cx="965" cy="200" r="95" fill="#13807a"/><circle cx="900" cy="240" r="60" fill="#2ec4b6"/><circle cx="1035" cy="235" r="62" fill="#2ec4b6"/><g transform="translate(1040 470)"><ellipse cx="0" cy="0" rx="62" ry="46" fill="#f7a8b8" stroke="#0d3b3e" stroke-width="4"/><circle cx="58" cy="-6" r="16" fill="#f7a8b8" stroke="#0d3b3e" stroke-width="4"/><rect x="-18" y="-50" width="36" height="8" rx="4" fill="#0d3b3e"/><circle cx="20" cy="-14" r="4" fill="#0d3b3e"/><rect x="-40" y="36" width="14" height="22" fill="#f7a8b8" stroke="#0d3b3e" stroke-width="4"/><rect x="24" y="36" width="14" height="22" fill="#f7a8b8" stroke="#0d3b3e" stroke-width="4"/><circle cx="0" cy="-80" r="16" fill="#ffc857" stroke="#0d3b3e" stroke-width="4"/></g><g transform="translate(600 660) scale(0.95)"><rect x="-22" y="-70" width="16" height="70" rx="8" fill="#0d3b3e"/><rect x="6" y="-70" width="16" height="70" rx="8" fill="#0d3b3e"/><ellipse cx="-14" cy="0" rx="14" ry="6" fill="#0d3b3e"/><ellipse cx="14" cy="0" rx="14" ry="6" fill="#0d3b3e"/><path d="M-30 -130 L-44 -80" stroke="#b9b3ea" stroke-width="16" stroke-linecap="round"/><path d="M30 -130 L62 -175" stroke="#b9b3ea" stroke-width="16" stroke-linecap="round"/><circle cx="-45" cy="-74" r="9" fill="#8d5a3b"/><circle cx="64" cy="-181" r="9" fill="#8d5a3b"/><rect x="-32" y="-145" width="64" height="85" rx="26" fill="#b9b3ea"/><circle cx="0" cy="-178" r="30" fill="#8d5a3b"/><path d="M-31 -182 C-30 -215 30 -218 31 -184 C20 -198 -10 -200 -31 -182Z" fill="#0d3b3e"/><circle cx="-10" cy="-178" r="3.5" fill="#0d3b3e"/><circle cx="10" cy="-178" r="3.5" fill="#0d3b3e"/><path d="M-10 -165 Q0 -156 10 -165" stroke="#0d3b3e" stroke-width="3" fill="none" stroke-linecap="round"/><circle cx="-18" cy="-167" r="4" fill="#ff7a59" opacity=".35"/><circle cx="18" cy="-167" r="4" fill="#ff7a59" opacity=".35"/></g></svg>
